<svg width="1480" height="320" viewBox="0 0 1480 320" fill="none" xmlns="http://www.w3.org/2000/svg">
  <path d="M1088.49 9.4H1050.87L937.922 122.35L824.976 9.4H787.327V47.05L900.273 160L787.327 272.95V310.6H824.976L937.922 197.65L1050.87 310.6H1088.49V272.95L975.571 160L1088.49 47.05V9.4Z" fill="#111111"/>
  <path d="M448.537 9.4H395.288V310.575H448.537V9.4Z" fill="#111111"/>
  <path d="M0 310.6H376.464L188.219 9.4L0 310.6ZM96.0472 257.35L188.219 109.875L280.392 257.35H96.0472Z" fill="#111111"/>
  <path d="M627.332 0C538.959 0 467.336 71.625 467.336 160C467.336 248.375 538.959 320 627.332 320C715.704 320 787.327 248.375 787.327 160C787.327 71.625 715.704 0 627.332 0ZM627.332 266.75C568.458 266.75 520.585 218.85 520.585 160C520.585 101.15 568.483 53.25 627.332 53.25C686.18 53.25 734.078 101.15 734.078 160C734.078 218.85 686.18 266.75 627.332 266.75Z" fill="#111111"/>
  <rect x="1152" y="98" width="274" height="124" rx="62" stroke="#111111" stroke-opacity="0.68" stroke-width="2"/>
  <text x="1289" y="177" fill="#111111" font-family="Arial, Helvetica, sans-serif" font-size="54" font-weight="700" letter-spacing="10" text-anchor="middle">STARTER</text>
</svg>
